<svg width="69" height="20" viewBox="0 0 69 20" fill="none" xmlns="http://www.w3.org/2000/svg">
<path d="M21.5479 9.99972C21.5479 8.64576 21.8189 7.37884 22.3514 6.18928C22.8935 4.99973 23.6196 3.96491 24.549 3.08484C25.4784 2.20476 26.5724 1.50843 27.8212 0.995862C29.0798 0.48329 30.4158 0.222168 31.8486 0.222168C33.2621 0.222168 34.5981 0.473618 35.8469 0.995862C37.0958 1.50843 38.1801 2.20476 39.1095 3.08484C40.0389 3.96491 40.7746 4.99973 41.3071 6.18928C41.8492 7.37884 42.1106 8.64576 42.1106 9.99972C42.1106 11.3537 41.8396 12.6206 41.3071 13.8102C40.765 14.9997 40.0389 16.0345 39.1095 16.9146C38.1801 17.7947 37.0958 18.491 35.8469 19.0036C34.5981 19.5162 33.2717 19.7773 31.8486 19.7773C30.4158 19.7773 29.0701 19.5258 27.8212 19.0036C26.5627 18.491 25.4784 17.7947 24.549 16.9146C23.6196 16.0345 22.8839 14.9997 22.3514 13.8102C21.8189 12.6206 21.5479 11.3537 21.5479 9.99972ZM25.5365 9.99972C25.5365 10.8121 25.7011 11.5761 26.0205 12.2918C26.3497 13.0075 26.795 13.6361 27.3759 14.168C27.9568 14.7096 28.6248 15.1351 29.3896 15.4543C30.1544 15.7734 30.9773 15.9282 31.8583 15.9282C32.7199 15.9282 33.5331 15.7734 34.2979 15.4543C35.0628 15.1351 35.7308 14.7096 36.3019 14.168C36.8731 13.6264 37.3281 13.0075 37.6573 12.2918C37.9865 11.5761 38.1607 10.8121 38.1607 9.99972C38.1607 9.20669 37.9961 8.44267 37.6573 7.71733C37.3185 6.99199 36.8731 6.36336 36.3019 5.82178C35.7308 5.28019 35.0628 4.85466 34.2979 4.53551C33.5331 4.21636 32.7199 4.06163 31.8583 4.06163C30.9773 4.06163 30.1544 4.21636 29.3896 4.53551C28.6248 4.85466 27.9471 5.28019 27.3759 5.82178C26.795 6.36336 26.3497 6.99199 26.0205 7.71733C25.7011 8.44267 25.5365 9.20669 25.5365 9.99972Z" fill="#222222"/>
<path d="M6.37738 5.82187C6.95825 5.28028 7.62625 4.85475 8.39106 4.5356C9.0881 4.24547 9.84323 4.09073 10.6371 4.06172H20.0762V0.231934H10.6468C10.6371 0.231934 10.6371 0.231934 10.6274 0.231934C9.28173 0.260947 8.01349 0.512397 6.83239 0.995956C5.57384 1.50853 4.48955 2.20485 3.56016 3.08493C2.63077 3.96501 1.895 4.99982 1.36253 6.18938C0.820389 7.37893 0.549316 8.64585 0.549316 9.99982C0.549316 11.3538 0.820389 12.6207 1.35285 13.8103C1.895 14.9998 2.62109 16.0346 3.55048 16.9147C4.47987 17.7948 5.57384 18.4911 6.82271 19.0037C7.78115 19.4002 8.79767 19.6323 9.87228 19.729C9.911 19.729 9.95941 19.7387 9.99813 19.7387C10.0756 19.7484 10.153 19.7484 10.2305 19.758C10.7339 19.787 11.3051 19.787 11.7795 19.787H20.0665V9.99982H16.0101V15.9282L10.6177 15.9186C9.82387 15.8896 9.07842 15.7348 8.38138 15.4447C7.61657 15.1255 6.93888 14.7 6.3677 14.1584C5.78683 13.6168 5.34149 12.9979 5.01233 12.2822C4.68317 11.5665 4.52827 10.8025 4.52827 9.99015C4.52827 9.19711 4.69285 8.43309 5.01233 7.70775C5.35117 6.99208 5.80619 6.36346 6.37738 5.82187Z" fill="#222222"/>
<path d="M48.1902 11.8571H44.3081V8.02734H48.1902V11.8571Z" fill="#38D430"/>
<path d="M59.7785 8.02707L68.54 0H62.7603L54.7056 7.41779V0H50.1748V8.02707H59.7785Z" fill="#38D430"/>
<path d="M59.643 11.8569H50.1748V20.0001H54.7056V12.621L62.7603 20.0001H68.54L59.643 11.8569Z" fill="#38D430"/>
</svg>
